<svg width="18" height="18" viewBox="0 0 18 18" fill="none" xmlns="http://www.w3.org/2000/svg">
<path fill-rule="evenodd" clip-rule="evenodd" d="M2.2858 14.567C1.90473 14.9481 1.90473 15.5659 2.2858 15.947C2.66688 16.3281 3.28472 16.3281 3.66579 15.947L9.00344 10.6093L14.6076 16.2135C14.9887 16.5946 15.6066 16.5946 15.9876 16.2135C16.3687 15.8325 16.3687 15.2146 15.9876 14.8335L10.3834 9.22934L15.947 3.66579C16.3281 3.28472 16.3281 2.66688 15.947 2.2858C15.5659 1.90473 14.9481 1.90473 14.567 2.2858L9.00344 7.84935L3.70644 2.55235C3.32537 2.17128 2.70752 2.17128 2.32645 2.55235C1.94538 2.93342 1.94538 3.55126 2.32645 3.93234L7.62346 9.22934L2.2858 14.567Z" fill="#C4C4C4"/>
</svg>
