<svg width="18" height="18" viewBox="0 0 18 18" fill="none" xmlns="http://www.w3.org/2000/svg">
<path d="M15.5 2H3.5C3.10218 2 2.72064 2.1475 2.43934 2.41005C2.15804 2.6726 2 3.0287 2 3.4V11.8C2 12.1713 2.15804 12.5274 2.43934 12.7899C2.72064 13.0525 3.10218 13.2 3.5 13.2H8V14.6H5.75V16H13.25V14.6H11V13.2H15.5C15.8978 13.2 16.2794 13.0525 16.5607 12.7899C16.842 12.5274 17 12.1713 17 11.8V3.4C17 3.0287 16.842 2.6726 16.5607 2.41005C16.2794 2.1475 15.8978 2 15.5 2ZM15.5 11.8H3.5V3.4H15.5V11.8Z" fill="white"/>
</svg>
